<?xml version="1.0"?><svg version="1.1" id="圖層_1" xmlns="http://www.w3.org/2000/svg" x="0" y="0" viewBox="0 0 100 100" xml:space="preserve"><path d="M49.161 78.087c2.608-1.48 5.904-1.68 8.671-.525 3.566 1.488 6.168 5.016 9.954 5.788 4.36.889 8.589-2.284 11.046-5.994 4.352-6.57 5.098-14.967 4.03-22.775-.355-2.595-.933-5.254-2.48-7.367-1.547-2.113-4.285-3.545-6.812-2.859s-4.184 3.996-2.691 6.148" fill="none" stroke-width="3" stroke-linecap="round" stroke="#333" stroke-miterlimit="10"/><path d="M46.556 23.089l-8.518 2.632a1.245 1.245 0 0 1-1.611-1.144l-.487-13.324c-.044-1.19 1.654-1.715 2.446-.756l8.763 10.611c.563.683.254 1.72-.593 1.981z" fill="#333"/><path d="M51.775 23.089l8.518 2.632a1.244 1.244 0 0 0 1.611-1.144l.487-13.325c.044-1.19-1.654-1.715-2.446-.756l-8.763 10.611a1.246 1.246 0 0 0 .593 1.982z" fill="#333"/><path d="M66.324 70.407C66.324 90.213 58.642 90 49.166 90s-17.158.213-17.158-19.593c0-15.527 7.682-32.532 17.158-32.532S66.324 54.88 66.324 70.407z" fill="#333"/><ellipse cx="49.166" cy="29.372" rx="14.418" ry="12.939" fill="#333"/><ellipse cx="43.501" cy="27.882" rx="3.93" ry="3.339" fill="#fff"/><ellipse cx="43.501" cy="27.83" rx="1.669" ry="3.287" fill="#333"/><ellipse cx="54.83" cy="27.882" rx="3.93" ry="3.339" fill="#fff"/><ellipse cx="54.83" cy="27.83" rx="1.669" ry="3.287" fill="#333"/><metadata xmlns:d="https://loading.io/stock/">
<d:name>cat</d:name>
<d:tags>cat,kitty,puss,feline,felid,felidae,animal,blackcat,witch</d:tags>
<d:license>by</d:license>
<d:slug>imeyrt</d:slug>
</metadata></svg>